<svg xmlns="http://www.w3.org/2000/svg" viewBox="0 0 180 50" fill="#f92672"><path d="M27 15v4.73c0 5.83-2.53 9-7.67 9h-2.4v13.72H11.8V6h7.58C24.5 6 27 9.22 27 15zm-10.08-3.75v12.32h2.44c1.64 0 2.52-.83 2.52-3.43v-5.46c0-2.6-.88-3.43-2.52-3.43zm28.55 31.2h-5.2l-.9-6.6h-6.32l-.9 6.6h-4.73L32.7 6h7.53zM33.72 30.9h5l-2.5-18.4zM54.8 5.63c5 0 7.58 3.33 7.58 9.15v1.14H57.5v-1.5c0-2.6-.94-3.6-2.57-3.6s-2.58 1-2.58 3.6c0 7.5 10.06 8.9 10.06 19.3 0 5.82-2.62 9.15-7.67 9.15s-7.68-3.33-7.68-9.15v-2.24h4.87v2.6c0 2.6 1 3.54 2.67 3.54s2.67-.94 2.67-3.54c0-7.48-10.07-8.9-10.07-19.3 0-5.78 2.58-9.15 7.6-9.15zm9.06.37h15.92v5.2h-5.4v31.2h-5.14V11.25h-5.4zM82 6h5.15v36.45H82zm14.06 15.4h7.07v5.2h-7.07v10.66H105v5.2H91V6h14v5.2h-8.94zm17.04 15.53v5.52h-5v-5.52zM116.84 6H125c5.15 0 7.68 3.18 7.68 9v18.45c0 5.82-2.53 9-7.68 9h-8.14zm5.16 5.25v26h2.9c1.64 0 2.62-.94 2.62-3.54V14.78c0-2.6-1-3.53-2.62-3.53zm19.08 10.15h7.07v5.2h-7.07v10.66H150v5.2h-14V6h14v5.2h-8.9zm19.84 14.34L164.86 6h4.72l-5.05 36.4h-7.68L151.8 6h5.2z"/></svg>